<svg id="Layer_1" data-name="Layer 1" xmlns="http://www.w3.org/2000/svg" viewBox="0 0 592.58 594.03"><defs><style>.cls-1{fill:#231f20;}.cls-2{fill:#bdcc2a;}.cls-3{fill:#519136;}.cls-4{fill:#7d5a41;}.cls-5{fill:#9d9fa2;}.cls-6{fill:#d1d3d4;}.cls-7{fill:none;stroke:#00aeef;stroke-miterlimit:3.86;stroke-width:0.25px;stroke-dasharray:8 4;}</style></defs><title>811-logo</title><path class="cls-1" d="M97.65,196.82c-.18,11.87.69,43.59,16.83,68.7-19.95,29.84-20.05,65.83-20.05,83.28,0,23.79,4.87,46.34,13.66,63.92-11.84,7.67-13.52,18.34-13.62,22.77A40.5,40.5,0,0,0,68,473.5v39.83c0,21,15.86,37.82,36.72,40.53,196.6,25.49,206.2,113.52,294.47,113.52,99.31,0,97-81.68,226.69-103.36,19.73-3.3,34.7-20.27,34.7-40.28V483.91A41,41,0,0,0,643,450.49c-1.15-10.79-8.76-30.14-30.5-35.54V126.17a40.77,40.77,0,0,0-40.73-40.73H511.34c-21.62,0-32.45,15.62-37.15,23.27a40.56,40.56,0,0,0-36.7-23.27H377c-28.44,0-35.54,25.93-44.77,32.7-22.4-29.66-57.89-44.8-105.75-44.8C144.92,73.34,98,118.35,97.65,196.82Z" transform="translate(-68 -73.34)"/><path class="cls-1" d="M135.15,348.19c-.11,28.46,7.06,49.24,21.92,63.53,15.25,14.66,37.93,21.78,69.35,21.78,60.87,0,90.57-27.55,90.79-84.23.05-14.07-.54-28.77-4.53-42.22-5.13-17.32-16-32.5-38.25-41.69,35.51-10.65,40.6-39.87,40.71-67.31,0-12.53-1.34-23.55-4.19-33.17-3.54-12-9.35-21.74-17.48-29.56-14.89-14.31-36.79-21.27-67-21.27-59.09,0-87.92,27.12-88.14,82.91,0,12.8,1.14,23.29,3.74,32.05a53,53,0,0,0,10.39,19.72c6.36,7.48,15,12.72,25.93,16.18C142.78,279.1,135.3,307.39,135.15,348.19Zm91.2-187A21.22,21.22,0,0,1,241.6,167c6.73,6.47,10.11,18.1,10.05,34.57,0,10.05-.16,40.65-24.53,40.65a21.28,21.28,0,0,1-15.3-5.83c-9-8.69-10-24.62-10-35.85h0C201.93,174.79,210.41,161.17,226.35,161.17ZM198.76,342.36c0-18,.12-51.64,27.08-51.64,6.73,0,12.35,2.13,16.73,6.34,11.21,10.79,11.1,32.18,11,46.32V345c-.11,27.63-8.95,41.07-27,41.07-7.13,0-13-2.2-17.53-6.53-9.3-8.94-10.32-24.58-10.27-35.57Z" transform="translate(-68 -73.34)"/><path class="cls-2" d="M359.85,230.12V393c11.26-7.54,66.39-7.55,77.63,0V126.17H377c-3,6.46-9.18,14.47-17.45,22.14-8.86,8.22-18.74,16-31,21.07V234C337.45,235.1,348.45,233.27,359.85,230.12Z" transform="translate(-68 -73.34)"/><path class="cls-2" d="M293.47,135.33c-14.89-14.31-36.79-21.27-67-21.27-59.09,0-87.92,27.12-88.14,82.91,0,12.8,1.14,23.29,3.74,32.05a53,53,0,0,0,10.39,19.72c6.36,7.48,15,12.72,25.93,16.18-35.66,14.17-43.13,42.46-43.29,83.26-.11,28.46,7.06,49.24,21.92,63.53,15.25,14.66,37.93,21.78,69.35,21.78,60.87,0,90.57-27.55,90.79-84.23.05-14.07-.54-28.77-4.53-42.22-5.13-17.32-16-32.5-38.25-41.69,35.51-10.65,40.6-39.87,40.71-67.31,0-12.53-1.34-23.55-4.19-33.17C307.41,152.94,301.6,143.16,293.47,135.33Zm-39.87,208V345c-.11,27.63-8.95,41.07-27,41.07-7.13,0-13-2.2-17.53-6.53-9.3-8.94-10.32-24.58-10.27-35.57v-1.57c0-18,.12-51.64,27.08-51.64,6.73,0,12.35,2.13,16.73,6.34C253.78,307.85,253.67,329.23,253.6,343.38Zm-2-141.79c0,10.05-.16,40.65-24.53,40.65a21.28,21.28,0,0,1-15.3-5.83c-9-8.69-10-24.62-10-35.85h0c.1-25.77,8.58-39.39,24.52-39.39A21.22,21.22,0,0,1,241.6,167C248.33,173.49,251.71,185.12,251.65,201.59Z" transform="translate(-68 -73.34)"/><path class="cls-2" d="M511.5,126.14c-3,6.46-9.18,14.47-17.46,22.14a112.93,112.93,0,0,1-32.76,21.07V234c8.9,1.07,21.64-.75,33-3.9V430.16H572v-304Z" transform="translate(-68 -73.34)"/><path class="cls-3" d="M496.49,539.67c6.73-30.15,21.11-63.85,35.7-81.84h70.33C547.12,474.28,513.62,513.56,496.49,539.67Z" transform="translate(-68 -73.34)"/><path class="cls-3" d="M299.78,539.67c-13.64-34.12-31-61.18-54-81.84H153.19C224.51,476.3,272.17,508.36,299.78,539.67Z" transform="translate(-68 -73.34)"/><path class="cls-4" d="M459.55,620.87C495.13,558,564.68,498.1,619.85,489.11v39.83C548.85,539.56,493.4,581.73,459.55,620.87Z" transform="translate(-68 -73.34)"/><path class="cls-4" d="M351.35,620.87C297.49,558,204.57,492.76,108.73,478.7v39.83C216.19,529.15,300.12,581.73,351.35,620.87Z" transform="translate(-68 -73.34)"/><path class="cls-5" d="M494.31,430.16H437.38V410.72c-11.25-7.62-66.13-7.62-77.38,0v19.43H303.06c0,85.19,20.58,164.1,95.6,190.65h.05C474.42,594.26,494.31,515.35,494.31,430.16Z" transform="translate(-68 -73.34)"/><path class="cls-6" d="M374,422.29s-.61,44.95,19.26,75.17c-4.68-26.65-5.5-46-5.64-76.79A42.72,42.72,0,0,0,374,422.29Z" transform="translate(-68 -73.34)"/><path class="cls-6" d="M399.28,582.88l-.18,17.33s51.49-25.89,63.2-63.92C447.12,554.39,426,575.42,399.28,582.88Z" transform="translate(-68 -73.34)"/><path class="cls-1" d="M652.56,407.14a16.67,16.67,0,0,1-28.4-12A15.92,15.92,0,0,1,629.37,383a16.37,16.37,0,0,1,11.49-4.53,16.75,16.75,0,0,1,11.7,28.69ZM631.1,385.46a13.93,13.93,0,0,0,.07,19.56,13.59,13.59,0,0,0,19.41,0,13.58,13.58,0,0,0,4-9.85,13.43,13.43,0,0,0-4-9.69,13.46,13.46,0,0,0-19.5,0Zm2.41,18.95V385.9h5.15q3.43,0,3.82,0a8.91,8.91,0,0,1,3.65,1,4.66,4.66,0,0,1,2.47,4.42,4.09,4.09,0,0,1-1.3,3.38,6,6,0,0,1-3.2,1.25,6.18,6.18,0,0,1,2.61,1.07,5,5,0,0,1,1.62,4.14v1.65a4.23,4.23,0,0,0,0,.54,2.85,2.85,0,0,0,.13.54l.17.52h-4.59a13,13,0,0,1-.29-2.55,8.28,8.28,0,0,0-.29-2.26,2.25,2.25,0,0,0-1.36-1.35,5.52,5.52,0,0,0-1.66-.29l-1.07-.07h-1v6.52Zm8.85-14.9a8,8,0,0,0-2.8-.39h-1.18v5.4h1.88a4.46,4.46,0,0,0,2.65-.68,2.54,2.54,0,0,0,.95-2.21A2.13,2.13,0,0,0,642.37,389.52Z" transform="translate(-68 -73.34)"/><path class="cls-7" d="M501.71,859.8" transform="translate(-68 -73.34)"/><path class="cls-7" d="M795.28,208.53" transform="translate(-68 -73.34)"/></svg>