<?xml version="1.0" encoding="utf-8"?>
<!-- Generator: Adobe Illustrator 23.0.4, SVG Export Plug-In . SVG Version: 6.00 Build 0)  -->
<svg version="1.1" id="Layer_1" xmlns="http://www.w3.org/2000/svg" xmlns:xlink="http://www.w3.org/1999/xlink" x="0px" y="0px"
	 viewBox="0 0 12 16" style="enable-background:new 0 0 12 16;" xml:space="preserve">
<style type="text/css">
	.st0{fill-rule:evenodd;clip-rule:evenodd;fill:#E15B36;}
</style>
<path class="st0" d="M10.5,2h-2c0-0.5-0.4-1-1-1h-3c-0.6,0-1,0.5-1,1h-2c-0.5,0-1,0.5-1,1v1c0,0.6,0.5,1,1,1v9c0,0.6,0.5,1,1,1h7
	c0.6,0,1-0.4,1-1V5c0.6,0,1-0.4,1-1V3C11.5,2.5,11.1,2,10.5,2z M9.5,14h-7V5h1v8h1V5h1v8h1V5h1v8h1V5h1V14z M10.5,4h-9V3h9V4z"/>
</svg>
