<?xml version="1.0" encoding="utf-8"?>
<!-- Generator: Adobe Illustrator 23.0.4, SVG Export Plug-In . SVG Version: 6.00 Build 0)  -->
<svg version="1.1" id="Layer_1" xmlns="http://www.w3.org/2000/svg" xmlns:xlink="http://www.w3.org/1999/xlink" x="0px" y="0px"
	 viewBox="0 0 576 216" style="enable-background:new 0 0 576 216;" xml:space="preserve">
<style type="text/css">
	.Arched_x0020_Green{fill:url(#SVGID_1_);stroke:#FFFFFF;stroke-width:0.25;stroke-miterlimit:1;}
	.st0{fill-rule:evenodd;clip-rule:evenodd;fill:#B3D334;}
	.st1{fill-rule:evenodd;clip-rule:evenodd;}
	.st2{fill:#8C8C8C;}
	.st3{fill:#B3D334;}
	.st4{fill:#FFFFFF;}
	.st5{fill:#BCCB32;}
	.st6{fill-rule:evenodd;clip-rule:evenodd;fill:#010101;}
	.st7{fill-rule:evenodd;clip-rule:evenodd;fill:#CDCCCC;}
	.st8{fill-rule:evenodd;clip-rule:evenodd;fill:#8C8C8C;}
</style>
<linearGradient id="SVGID_1_" gradientUnits="userSpaceOnUse" x1="0" y1="216" x2="0.7071" y2="215.2929">
	<stop  offset="0" style="stop-color:#20AC4B"/>
	<stop  offset="0.9831" style="stop-color:#19361A"/>
</linearGradient>
<path class="st0" d="M472.8,68.8c0,0-23.5,9.2-23.5,23.5s1.5,37.8,1.5,37.8l34,3l-32,0.8l-2.5,13.5l44,19.8l16.8,3l39-19.2l-7-18.8
	l-2.8-60l-22,2.8l-17-3.5l-7.8,7.2l-17.8-10.8L472.8,68.8z"/>
<g>
	<path class="st1" d="M471.5,95.4c0.3,0.2,0.6,0.4,1,0.5c0.5,0.3,1.2,0.5,1.9,0.5c4.3,0,4.9-5.4,4.4-10c0,0,0-0.1,0-0.1
		c-0.4-1.8-1.1-3.4-2.4-4.2c-0.3-0.3-0.6-0.5-1-0.6c-0.6-0.2-1.8-0.2-2.4-0.1c-0.7,0.1-1.2,0.4-1.6,0.6
		C469,83.8,468.1,92.9,471.5,95.4z"/>
	<path class="st1" d="M471.5,122c0.7,0.4,1.4,0.5,2.1,0.6c0.5,0.1,1.1,0.1,1.7,0c0,0,0.1,0,0.1,0c3.3-0.4,4-5.3,3.8-9.6
		c-0.1-3-0.9-5.8-2.6-7c-0.9-0.7-2.1-1-3.7-0.8c-0.8,0.1-1.4,0.4-1.8,0.7C467.8,108.3,467.8,120,471.5,122z"/>
	<path class="st1" d="M550.5,134.4c0,0-0.1-0.1-0.1-0.2c-0.2-1.2-0.5-2.1-1-3c0,0,0-0.1,0-0.1c-0.2-0.4-0.5-0.7-0.7-1.1
		c-0.4-0.3-0.7-0.6-1-1c-0.1-0.1-0.2-0.1-0.3-0.2c-0.7-0.5-1.4-0.9-2.3-1.1c-0.2-17.6,0-35.5-0.1-53.2c0-0.3-0.1-0.6-0.2-0.9
		c-0.4-3.3-3-5.8-6.4-6.3c-1.7-0.3-4-0.1-6.1-0.1c-2.2,0-4.5-0.2-6.5,0c-3.1,0.2-4.9,2.1-6.3,4.2c-0.5-0.8-1.3-2-2.3-2.7
		c-1.9-1.4-4.9-1.5-8.1-1.5c-3.4,0-7-0.4-9.4,0.3c-3.2,0.8-4.3,3.8-6.2,5.7c-0.5-0.6-0.9-1.1-1.4-1.6c-3.7-3.8-8.9-6.1-15.9-6.6
		c0,0-4.8-0.4-7.9,0.4c-7.2,1.4-12.4,5.4-14.4,9.2c-0.9,1.7-1.4,3.5-1.6,4.5c0,0.1-0.1,0.3-0.1,0.4l0.1-8.8
		c-0.1-3.9-2.1-5.6-6.3-5.6c-104.4,0-425,0-425,0v31.3v9c0,0-0.4,15,7.4,23.3c8.5,8.9,22.5,9.2,22.5,9.2h10.7l383.3-0.2
		c0,3.1,0,6.1,0,9.2c0.7,3.2,2.5,5.6,5.7,6.4c1.3,0.3,2.7,0.4,4,0.6c9.5,1.4,17.5,3.8,24.7,7.7c3.8,2,7.6,4.7,11.3,7.2
		c3.7,2.5,8.2,5.2,13.2,5.5c1.3,0,2.7,0,4,0c2.8-0.2,5.3-0.8,7.4-1.8c4.8-2.1,8.5-5.7,12.4-8.7c4.4-3.4,9.1-5.9,15.2-7.5
		c1.9-0.5,4-0.6,6.1-1.4c2.4-0.9,4.2-3.2,4.7-6.1c0-3,0-6,0-9C553.2,137.3,552.1,135.6,550.5,134.4z M542.6,135.8
		c-8.4,2.7-14.3,7.9-18.8,14.5c0.2-1.3,0.7-2.7,1.1-3.9c0.1-0.3,0.2-0.6,0.3-0.9c0.2-0.8,0.5-1.4,0.8-2.1l0.1-0.3
		c0.3-0.7,0.6-1.5,1-2.1c0-0.2,0.1-0.3,0.2-0.4c0.5-1,0.9-2,1.6-2.8c0.1,0,0.1-0.1,0.1-0.2c0.3-0.7,0.8-1.3,1.3-1.9
		C534.3,135.8,538.4,135.8,542.6,135.8z M517.2,83.1c3.8-1.9,7.2-4.3,9.2-8c3.6-0.1,7.4,0.1,10.9-0.1c0,18.5,0,37.1,0,55.6
		c-4.7,0-9.4,0-14.1,0c0,0,0,0,0.1,0c0-0.3,0-0.6,0-0.9c0,0,0-0.1,0-0.1c0-11.8,0-24,0-35.8c-0.2,0-0.4,0.1-0.6,0.1
		c-1.7,0.4-3.4,0.7-5.5,0.6C517.2,90.8,517.2,87,517.2,83.1z M493.1,83c2.1-0.9,3.7-2.2,5.3-3.6c0.4-0.5,0.8-0.9,1.3-1.3
		c0.8-0.9,1.5-1.9,2.2-3c3.5,0,7.1,0,10.6,0c0,0,0,0.1,0,0.1c0,0,0.1,0,0.1,0c0,16.2,0,32.3,0,48.5l0,0c-3.6-1.3-10.1-1.3-13.9-0.1
		c0-9.8,0-19.9,0-29.7c-0.1,0-0.2,0-0.3,0.1c0,0,0,0,0,0c0,0,0,0-0.1,0c-0.2,0-0.4,0.1-0.7,0.2c-1.4,0.3-2.8,0.6-4.6,0.5
		C492.9,91,492.7,86.5,493.1,83z M457.9,111.2c0-0.1,0-0.1,0-0.2c0.6-5.4,3.2-8.9,7.6-10.5c-0.1-0.1-0.3-0.2-0.5-0.2c0,0,0,0,0.1,0
		c0,0-0.1,0-0.1,0c0,0,0,0,0,0c0,0,0,0,0,0c-0.5-0.3-1.1-0.5-1.6-0.7c-1-0.5-1.8-1.2-2.5-2.1c-0.1,0-0.1,0-0.1-0.1
		c-0.6-0.7-1.1-1.5-1.4-2.4c0-0.1,0-0.2-0.1-0.3c-0.6-1.5-0.9-2.8-1-4.4c-0.5-8.5,2.4-14.7,9.1-16.4c0.2,0,0.2-0.1,0.4-0.1
		c1.6-0.5,3.4-0.8,5.5-0.8c0.6-0.1,1.7-0.1,2.3,0c2.2,0,4.2,0.3,5.8,0.9c0,0,0.1,0,0.1,0c1.1,0.3,2.1,0.7,3,1.3
		c0,0.1,0.1,0.1,0.2,0.1c0.1,0,0.1,0.1,0.2,0.1c3.9,2.7,5.7,7.5,5.4,14.2c-0.2,5.6-2.6,9.4-7.3,10.7c0.6,0.3,1,0.6,1.5,0.8
		c0.4,0.2,0.8,0.4,1.1,0.7c3.6,2.5,4.8,6.7,5.1,12.3c0.3,5.4-0.9,10.4-3.9,13.3c-3,2.9-9.2,4.3-15,3.9c-0.8-0.1-1.6-0.2-2.3-0.3
		c-0.1,0-0.2,0-0.3,0c-1.5-0.3-3-0.7-4.2-1.4c-0.2,0.1-0.2-0.2-0.4-0.2c-1-0.4-1.8-1-2.5-1.7c-0.4-0.3-0.7-0.7-1-1
		c-1.5-1.8-2.6-4.1-3-7c0-0.1,0-0.2,0-0.3C457.4,117,457.5,113.6,457.9,111.2z M487.2,150.1c0,0-0.1-0.1-0.1-0.1
		c-0.6-0.6-1.3-1.2-1.8-1.8c-4.9-4.4-10.8-7.8-17.6-10.4c0,0-0.1,0-0.1,0c-1.3-0.5-2.8-0.9-4.1-1.4c-0.6-0.1-1.2-0.3-1.8-0.5
		c-0.3,0.1-0.4-0.2-0.7-0.1c0,0,0.1-0.1,0.2-0.1c0.1,0,0.3,0,0.4,0c0.2,0,0.3,0,0.4,0c0,0,0.1,0,0.1,0c5.1,0,10.3,0,15.4,0
		c0.9,0.4,2.2,2.1,3,3C483.3,142.1,485.4,146.1,487.2,150.1z M487.2,158.7C487.1,158.7,487.1,158.7,487.2,158.7
		c-5.5-3.3-11.5-6.1-17.9-8.4c0,0-0.1,0-0.1,0c-1.4-0.5-2.9-0.8-4.3-1.3c0,0-0.1,0-0.1,0c-0.9-0.2-1.8-0.4-2.7-0.7c0,0-0.1,0-0.1,0
		c-2.9-0.6-5.9-1.2-9.1-1.5c0,0-0.2,0-0.2,0c-0.5-2.1,0.3-5.1,0.1-7.3c19.2,3.6,32.2,13.4,43.3,25.1
		C493.2,162.8,490.2,160.6,487.2,158.7z M514.8,159.5c-1,1.2-2.1,2.1-3.1,2.8c-0.5,0.2-0.1,0.2-0.7,0.5c-1,0.6-4.1,2.6-5.3,2.7
		c-0.2,0-0.1-0.2-0.2,0c-12.6-4.7-17.2-17.4-17.2-34.7c3.4,0,6.9,0,10.4,0c0.1-0.6,0.2-2.5,0-3.6c3-1.3,8.5-1.4,12.3-0.6
		c0.6,0.1,1.2,0.3,1.6,0.5c0,1.2,0,2.3,0,3.5c0.1,0,0.2,0,0.2,0c0,0,0,0.1,0,0.1c3.2,0.1,7.1,0.1,10.3,0c-0.3,8.6-1.2,16.1-3.9,22.2
		c-0.3-0.1-0.1,0.9-0.5,0.5c-0.2,1.1-0.8,2-1.3,2.9C516.6,157.5,515.3,158.8,514.8,159.5z M546.1,143.1c0,1.7,0,3.8,0,5.6
		c-1.2,0.2-2.3,0.4-3.4,0.7c0,0,0,0-0.1,0c-0.2,0-0.3,0.1-0.5,0.1c-10.7,2.7-18.5,8.4-24.9,15.4c3.8-6.9,9.4-12.7,15.7-17.4
		c0,0,0.1,0,0.1,0c2.1-1.6,4.4-3,7-4.2c0.5-0.1,0.8-0.4,1.3-0.5c1.4-0.6,2.8-1.1,4.6-1.3C546.3,141.9,546.1,142.6,546.1,143.1z"/>
</g>
<g>
	<path class="st2" d="M181.9,197.9c-29.7-10.2-28.9-34.5-28.8-36l-1-28.7l24.5-0.1l-0.4-60.9c0-0.2,1-16.5-2.8-21.9
		c-0.6-0.9-1.2-1.7-1.9-2.6c-3.6-4.7-7.7-10.1-7.1-25.5l0-1h34l0.1,0.9c0.1,0.4,1.3,11.1-5,22.2c-5.7,10-6.2,10.8-6.3,28
		c-0.2,15.6-0.2,54-0.2,60.8l23.8,0.2l-1,29.2c-1.7,27.2-27.1,35.2-27.4,35.2l-0.3,0.1L181.9,197.9z M169.5,31.2c1.3,5.7,3,8,5.4,11
		c0.7,1,1.6,2.1,2.5,3.4c2.2,3.2,3.7,6.1,4.6,8c1.1-2.6,2.8-5.1,4.8-8.1c1.4-2,2.9-4.3,4.6-7c1.9-3.1,2.7-5.8,3-7.2H169.5z"/>
	<path class="st3" d="M197.7,22.4c0,0,1.3,10.6-4.9,21.6c-5.8,10.2-6.3,11.3-6.5,28.5c-0.2,17.2-0.2,61.8-0.2,61.8l23.8,0.2
		l-0.9,28.2c-1.6,26.8-26.6,34.3-26.6,34.3c-30.1-10.3-28.1-35-28.1-35l-0.9-27.7l24.5-0.1l-0.4-61.9c0,0,1-16.7-2.9-22.5
		c-4-5.9-9.5-9.6-8.8-27.4H197.7 M182,56.4c1.5-5.2,5.3-9.4,10.2-17.4c3-4.9,3.3-8.8,3.3-8.8h-27.3c1.8,9,4.5,10.4,8.3,16
		C180.3,51.7,182,56.4,182,56.4 M199.5,20.3h-1.8h-32h-2l-0.1,2c-0.7,15.8,3.6,21.3,7.3,26.1c0.7,0.9,1.3,1.7,1.9,2.5
		c2.9,4.3,2.9,16.8,2.6,21.2l0,0.1v0.1l0.3,59.9l-22.4,0.1l-2.1,0l0.1,2.1l0.9,27.6c-0.1,1-0.2,7.1,3,14.5
		c3.2,7.2,10.3,16.9,26.6,22.5l0.6,0.2l0.6-0.2c0.3-0.1,6.7-2.1,13.4-7.5c6.2-5,13.8-14.1,14.7-28.7l0,0l0,0l0.9-28.2l0.1-2.1
		l-2.1,0l-21.7-0.2c0-9,0.1-44.8,0.2-59.7c0.2-16.9,0.6-17.7,6.2-27.5c6.5-11.4,5.2-22.4,5.1-22.9L199.5,20.3L199.5,20.3z
		 M170.8,32.3H193c-0.4,1.4-1.2,3.4-2.5,5.7c-1.6,2.7-3.2,5-4.5,7c-1.5,2.3-2.9,4.3-4,6.3c-0.9-1.8-2.2-3.9-3.7-6.2
		c-0.9-1.3-1.8-2.4-2.5-3.4C173.5,38.8,172,36.9,170.8,32.3L170.8,32.3z"/>
</g>
<path class="st4" d="M41.2,74.9v30.6c0,9.3,3.6,13.9,9.7,13.9c6.3,0,9.8-4.4,9.8-13.9V74.9h12v29.9c0,16.5-8.3,24.3-22.2,24.3
	c-13.5,0-21.3-7.5-21.3-24.5V74.9H41.2z"/>
<path class="st4" d="M82.3,115.8c3.2,1.7,8.2,3.3,13.4,3.3c5.5,0,8.5-2.3,8.5-5.8c0-3.3-2.5-5.2-8.9-7.4
	c-8.9-3.2-14.7-8.1-14.7-15.8c0-9.1,7.7-16,20.2-16c6.1,0,10.4,1.2,13.6,2.7l-2.7,9.7c-2.1-1-5.9-2.5-11.1-2.5
	c-5.2,0-7.8,2.5-7.8,5.1c0,3.4,2.9,4.9,9.9,7.5c9.4,3.5,13.8,8.4,13.8,15.9c0,8.9-6.8,16.5-21.4,16.5c-6.1,0-12.1-1.7-15.1-3.3
	L82.3,115.8z"/>
<path class="st4" d="M135.9,114.5l-3.8,13.7h-12.4l16.2-53.3h15.8l16.6,53.3h-13.1l-4.1-13.7H135.9z M149.4,105.5l-3.3-11.3
	c-1-3.2-1.9-7.1-2.7-10.3h-0.2c-0.8,3.2-1.6,7.2-2.4,10.3l-3.2,11.3H149.4z"/>
<path class="st4" d="M199.7,128.2V74.9h14.1l11.1,19.5c3.2,5.6,6.3,12.3,8.7,18.3h0.2c-0.7-7-0.9-14.2-0.9-22.3V74.9h11.1v53.3
	h-12.7l-11.4-20.6c-3.2-5.7-6.7-12.6-9.3-18.8h-0.3c0.4,7.1,0.6,14.6,0.6,23.3v16.1H199.7z"/>
<path class="st4" d="M302,101c0,17.6-10.5,28.1-26.2,28.1c-15.7,0-25.1-12-25.1-27.2c0-16,10.3-27.9,26-27.9
	C293,73.9,302,86.2,302,101z M263.5,101.6c0,10.5,4.9,17.9,13,17.9c8.2,0,12.8-7.8,12.8-18.1c0-9.7-4.5-17.9-12.8-17.9
	C268.2,83.5,263.5,91.2,263.5,101.6z"/>
<path class="st4" d="M308.7,75.6c3.9-0.6,9.6-1.1,16.1-1.1c7.9,0,13.5,1.2,17.2,4.2c3.2,2.5,5,6.3,5,11.2c0,6.7-4.8,11.4-9.4,13.1
	v0.2c3.7,1.5,5.8,5,7.1,9.9c1.7,6.1,3.2,13.1,4.3,15.1h-12.3c-0.8-1.6-2.1-5.9-3.6-12.4c-1.5-6.7-3.8-8.5-8.8-8.5h-3.6v21h-11.9
	V75.6z M320.7,98.5h4.7c6,0,9.6-3,9.6-7.7c0-4.8-3.3-7.4-8.9-7.4c-2.9,0-4.6,0.2-5.5,0.4V98.5z"/>
<path class="st4" d="M364.8,85h-14.4V74.9h41V85h-14.6v43.2h-12V85z"/>
<path class="st4" d="M408.8,74.9v20.5h19.9V74.9h12v53.3h-12v-22.3h-19.9v22.3h-12V74.9H408.8z"/>
<path class="st5" d="M110.6,169.6c-0.9,0.4-3.1,1-5.8,1c-7.8,0-11.9-4.9-11.9-11.4c0-7.7,5.5-12,12.4-12c2.7,0,4.7,0.5,5.6,1l-1.1,4
	c-1-0.4-2.5-0.8-4.3-0.8c-4,0-7.2,2.5-7.2,7.5c0,4.5,2.7,7.4,7.2,7.4c1.6,0,3.3-0.3,4.3-0.7L110.6,169.6z"/>
<path class="st5" d="M127.2,166.2c0,1.6,0.1,3.1,0.3,4h-4.6l-0.3-1.6h-0.1c-1.1,1.3-2.8,2-4.7,2c-3.3,0-5.3-2.4-5.3-5
	c0-4.3,3.8-6.3,9.7-6.3V159c0-0.9-0.5-2.2-3-2.2c-1.7,0-3.5,0.6-4.5,1.2l-0.9-3.3c1.1-0.6,3.4-1.5,6.4-1.5c5.5,0,7.2,3.2,7.2,7.1
	V166.2z M122.3,162.4c-2.7,0-4.8,0.6-4.8,2.6c0,1.3,0.9,2,2,2c1.2,0,2.3-0.8,2.7-1.9c0.1-0.3,0.1-0.6,0.1-0.9V162.4z"/>
<path class="st5" d="M131.3,146.3h5.1v23.9h-5.1V146.3z"/>
<path class="st5" d="M140.6,146.3h5.1v23.9h-5.1V146.3z"/>
<g>
	<g>
		<path class="st3" d="M167.9,171.2c-6.6,0-9.6-3.8-9.6-7.4c0-2.5,1.2-4.7,3.5-6c-1.7-1.3-2.7-3.1-2.7-5.2c0-4.3,3.8-7.5,9.1-7.5
			c5.9,0,8.6,3.6,8.6,6.9c0,2.1-1,3.9-2.7,5.2c2.3,1.3,3.6,3.5,3.6,6C177.8,168,173.8,171.2,167.9,171.2L167.9,171.2z M167.6,160.6
			c-1.3,0.4-2.1,1.4-2.1,2.7c0,0.7,0.2,1.3,0.7,1.8c0.3,0.3,0.9,0.7,1.9,0.7c1.4,0,2.4-0.9,2.4-2.1C170.5,161.8,169,161,167.6,160.6
			L167.6,160.6z M168,150.5c-1.9,0-2,1.5-2,1.9c0,1.2,1.3,2,2.5,2.4c0.8-0.3,1.6-1.1,1.6-2.1C170,152,169.8,150.5,168,150.5
			L168,150.5z"/>
		<path d="M168.2,145.9c5.5,0,7.8,3.2,7.8,6.1c0,2-1.1,4-3.5,5.2v0.1c2.3,0.9,4.4,2.8,4.4,5.9c0,4.3-3.6,7.2-9.1,7.2
			c-6,0-8.8-3.4-8.8-6.6c0-2.8,1.6-4.8,4.2-5.9v-0.1c-2.3-1.2-3.4-3.1-3.4-5.2C159.9,148.6,163.5,145.9,168.2,145.9 M168.4,155.6
			c1.3-0.4,2.4-1.5,2.4-3c0-1.5-0.8-3-2.9-3c-1.9,0-2.8,1.3-2.8,2.7C165.1,154,166.5,155,168.4,155.6 M168.1,166.6
			c1.9,0,3.2-1.3,3.2-3c0-2.1-1.6-3.3-3.7-3.9c-1.8,0.5-2.9,1.8-2.9,3.5C164.7,165,166,166.6,168.1,166.6 M168.2,144.3
			c-5.8,0-9.9,3.5-9.9,8.3c0,2,0.8,3.7,2.2,5.1c-1.9,1.5-3,3.6-3,6.1c0,3.9,3.3,8.2,10.4,8.2c6.4,0,10.7-3.5,10.7-8.8
			c0-2.5-1.1-4.6-3.1-6.1c1.4-1.4,2.2-3.1,2.2-5.1C177.7,148.3,174.7,144.3,168.2,144.3L168.2,144.3z M168.4,153.9
			c-0.8-0.3-1.7-0.8-1.7-1.5c0-1.1,0.9-1.1,1.2-1.1c0.3,0,1.3,0,1.3,1.3C169.2,153.2,168.8,153.6,168.4,153.9L168.4,153.9z
			 M168.1,165c-0.5,0-1-0.2-1.3-0.5c-0.3-0.3-0.5-0.7-0.5-1.2c0-1.1,0.6-1.6,1.3-1.9c1.4,0.5,2.1,1.2,2.1,2.2
			C169.7,164.5,169.1,165,168.1,165L168.1,165z"/>
	</g>
	<g>
		<polygon class="st3" points="182.9,170.8 182.9,152.5 178.5,154.6 177.3,148.8 184.3,145.5 189.8,145.5 189.8,170.8 		"/>
		<path d="M189,146.3V170h-5.4v-18.8h-0.1l-4.5,2.2l-0.9-4.2l6.3-2.9H189 M190.6,144.7H189h-4.6h-0.4l-0.3,0.1l-6.3,2.9l-1.2,0.5
			l0.3,1.3l0.9,4.2l0.4,2l1.8-0.9l2.3-1.1V170v1.6h1.6h5.4h1.6V170v-23.7V144.7L190.6,144.7z"/>
	</g>
	<g>
		<polygon class="st3" points="197,170.8 197,152.5 192.6,154.6 191.4,148.8 198.4,145.5 203.9,145.5 203.9,170.8 		"/>
		<path d="M203.1,146.3V170h-5.4v-18.8h-0.1l-4.5,2.2l-0.9-4.2l6.3-2.9H203.1 M204.8,144.7h-1.6h-4.6h-0.4l-0.3,0.1l-6.3,2.9
			l-1.2,0.5l0.3,1.3l0.9,4.2l0.4,2l1.8-0.9l2.3-1.1V170v1.6h1.6h5.4h1.6V170v-23.7V144.7L204.8,144.7z"/>
	</g>
</g>
<path class="st5" d="M215.6,147.8c1.3-0.2,4-0.5,6.6-0.5c3.1,0,5,0.3,6.7,1.3c1.6,0.8,2.7,2.4,2.7,4.5c0,2-1.2,3.8-3.7,4.8v0.1
	c2.6,0.7,4.5,2.7,4.5,5.6c0,2.1-0.9,3.7-2.4,4.8c-1.7,1.3-4.4,2.1-8.9,2.1c-2.5,0-4.4-0.2-5.6-0.3V147.8z M220.7,156.5h1.7
	c2.7,0,4.1-1.1,4.1-2.8c0-1.7-1.3-2.6-3.6-2.6c-1.1,0-1.8,0.1-2.2,0.1V156.5z M220.7,166.5c0.5,0.1,1.1,0.1,2,0.1
	c2.3,0,4.4-0.9,4.4-3.3c0-2.3-2.1-3.2-4.6-3.2h-1.8V166.5z"/>
<path class="st5" d="M239.9,163.6c0.1,2.1,2.3,3.1,4.6,3.1c1.8,0,3.2-0.2,4.5-0.7l0.7,3.5c-1.7,0.7-3.7,1-6,1
	c-5.6,0-8.8-3.2-8.8-8.4c0-4.2,2.6-8.8,8.3-8.8c5.3,0,7.3,4.1,7.3,8.2c0,0.9-0.1,1.6-0.2,2H239.9z M246,160.1c0-1.2-0.5-3.3-2.9-3.3
	c-2.2,0-3,2-3.2,3.3H246z"/>
<path class="st5" d="M254.4,170.2v-12.7h-2.2v-3.8h2.2v-0.6c0-2,0.6-4.2,2.1-5.5c1.3-1.2,3.1-1.6,4.6-1.6c1.1,0,2,0.2,2.7,0.3
	l-0.2,3.9c-0.4-0.1-1-0.2-1.7-0.2c-1.7,0-2.4,1.3-2.4,2.9v0.8h3.3v3.8h-3.3v12.7H254.4z"/>
<path class="st5" d="M281.2,161.7c0,6-4.3,8.8-8.7,8.8c-4.8,0-8.5-3.2-8.5-8.5c0-5.3,3.5-8.7,8.8-8.7
	C277.8,153.3,281.2,156.8,281.2,161.7z M269.3,161.9c0,2.8,1.2,4.9,3.4,4.9c2,0,3.3-2,3.3-5c0-2.4-0.9-4.9-3.3-4.9
	C270.2,157,269.3,159.5,269.3,161.9z"/>
<path class="st5" d="M284.3,159.1c0-2.4,0-4-0.1-5.4h4.4l0.2,3h0.1c0.8-2.4,2.8-3.4,4.4-3.4c0.5,0,0.7,0,1.1,0.1v4.8
	c-0.4-0.1-0.8-0.1-1.4-0.1c-1.9,0-3.2,1-3.5,2.6c-0.1,0.3-0.1,0.7-0.1,1.1v8.3h-5.1V159.1z"/>
<path class="st5" d="M300.8,163.6c0.1,2.1,2.3,3.1,4.6,3.1c1.8,0,3.2-0.2,4.5-0.7l0.7,3.5c-1.7,0.7-3.7,1-6,1
	c-5.6,0-8.8-3.2-8.8-8.4c0-4.2,2.6-8.8,8.3-8.8c5.3,0,7.3,4.1,7.3,8.2c0,0.9-0.1,1.6-0.2,2H300.8z M306.8,160.1
	c0-1.2-0.5-3.3-2.9-3.3c-2.2,0-3,2-3.2,3.3H306.8z"/>
<path class="st5" d="M325.5,170.2v-9.3l-7.2-13.4h5.9l2.3,5.5c0.7,1.6,1.2,2.9,1.7,4.3h0.1c0.5-1.4,1-2.7,1.7-4.3l2.3-5.5h5.8
	l-7.5,13.2v9.5H325.5z"/>
<path class="st5" d="M353,161.7c0,6-4.3,8.8-8.7,8.8c-4.8,0-8.5-3.2-8.5-8.5c0-5.3,3.5-8.7,8.8-8.7C349.6,153.3,353,156.8,353,161.7
	z M341.1,161.9c0,2.8,1.2,4.9,3.4,4.9c2,0,3.3-2,3.3-5c0-2.4-0.9-4.9-3.3-4.9C342,157,341.1,159.5,341.1,161.9z"/>
<path class="st5" d="M371.6,164.9c0,2.2,0.1,3.9,0.1,5.3h-4.4l-0.2-2.3H367c-0.6,1-2.2,2.7-5.1,2.7c-3.4,0-5.8-2.1-5.8-7.2v-9.7h5.1
	v8.9c0,2.4,0.8,3.8,2.6,3.8c1.4,0,2.3-1,2.6-1.8c0.1-0.3,0.2-0.7,0.2-1.1v-9.8h5.1V164.9z"/>
<path class="st5" d="M382.7,147.8c1.9-0.3,4.3-0.5,6.9-0.5c4.3,0,7.2,0.8,9.3,2.4c2.4,1.8,3.8,4.5,3.8,8.5c0,4.3-1.6,7.3-3.7,9.2
	c-2.4,2-6.1,2.9-10.5,2.9c-2.7,0-4.6-0.2-5.8-0.3V147.8z M387.8,166.3c0.4,0.1,1.2,0.1,1.8,0.1c4.7,0,7.7-2.5,7.7-7.9
	c0-4.7-2.8-7.2-7.2-7.2c-1.1,0-1.9,0.1-2.3,0.2V166.3z"/>
<path class="st5" d="M411.4,149.1c0,1.4-1,2.6-2.8,2.6c-1.6,0-2.7-1.1-2.7-2.6c0-1.4,1.1-2.6,2.7-2.6
	C410.4,146.6,411.4,147.7,411.4,149.1z M406.1,170.2v-16.5h5.1v16.5H406.1z"/>
<path class="st5" d="M430.9,167.8c0,3.2-0.6,5.8-2.5,7.4c-1.8,1.5-4.2,2-6.7,2c-2.2,0-4.4-0.4-5.9-1.2l1-3.9c1,0.6,2.8,1.2,4.8,1.2
	c2.4,0,4.3-1.3,4.3-4.3v-1h-0.1c-1,1.3-2.6,2.1-4.4,2.1c-4.1,0-7-3.3-7-8c0-5.3,3.4-8.7,7.5-8.7c2.3,0,3.7,1,4.5,2.4h0.1l0.2-2h4.4
	c-0.1,1.1-0.1,2.5-0.1,4.9V167.8z M425.8,160.4c0-0.3,0-0.6-0.1-0.9c-0.4-1.3-1.3-2.3-2.8-2.3c-1.9,0-3.4,1.7-3.4,4.7
	c0,2.5,1.2,4.4,3.3,4.4c1.3,0,2.4-0.9,2.7-2c0.1-0.4,0.2-0.9,0.2-1.4V160.4z"/>
<path class="st6" d="M549.7,121.2c2.4-0.2,4.2,2.2,3.1,4.4c-1,2.2-4.7,2.2-5.7-0.1C546.3,123.5,547.7,121.4,549.7,121.2z
	 M547.6,123.4c-1.3,3.9,5,4.7,5,0.9c0-1.6-1.2-2.9-3.2-2.4C548.5,122.1,547.8,122.9,547.6,123.4z"/>
<path class="st7" d="M548.7,122.6c0.4-0.2,1.4-0.2,1.8,0C549.9,122.6,549.3,122.6,548.7,122.6z"/>
<path class="st6" d="M548.7,122.6c0.6,0,1.2,0,1.8,0c0.7,0.1,1,0.5,1,1.3c-0.2,0.2-0.3,0.4-0.6,0.4c0.4,0.3,0.6,0.9,0.6,1.7
	c-0.3-0.1-0.6,0.1-0.9-0.1c0-0.3,0.1-0.7-0.1-0.9c-0.1-0.3-0.5-0.3-0.9-0.3c-0.1,0.1,0.1,0.8-0.1,1.2c-0.3,0-0.7,0.1-0.9-0.1
	C548.7,124.8,548.7,123.5,548.7,122.6z M549.6,123.2c0,0.3,0,0.6,0,1C550.8,124.5,550.9,122.9,549.6,123.2z"/>
<path class="st7" d="M503.7,128.9c0.1,4.9,0.3,9.8,1,14c-2.2-3.5-3.4-8-3.5-13.7C502.1,129,503.2,129,503.7,128.9z"/>
<path class="st7" d="M547.5,129.2c0.5,0.4,0.9,0.6,1,1C548.2,129.8,547.9,129.5,547.5,129.2z"/>
<path class="st8" d="M460.9,126.6c0.4,0.3,0.7,0.7,1,1C461.6,127.4,461.2,127,460.9,126.6z"/>
<path class="st8" d="M493,94.9c-0.1-3.7-0.3-8.3,0.1-11.9c0,0.1-0.1,0.1-0.1,0.2c0,0.1,0,0.1,0,0.2C493,87.2,493,91,493,94.9z"/>
<path class="st8" d="M485.3,148.2c0.3,0.2,0.5,0.5,0.8,0.7c0,0.1,0,0.1,0.1,0.1c0.3,0.4,0.6,0.7,1,1c0,0,0,0.1,0,0.1
	C486.4,149.5,485.8,148.9,485.3,148.2z"/>
<g>
	<path class="st8" d="M523.3,130.6C523.3,130.7,523.3,130.7,523.3,130.6c0,17.5-4.6,30.3-17.4,35c-12.9-4.6-17.6-17.4-17.6-34.9
		c3.4,0,6.9,0,10.4,0c0.1-0.6,0.2-2.5,0-3.6c3.5-1.5,10.5-1.4,14.2-0.1c0,1.2,0,2.4,0,3.6C516.1,130.8,520,130.8,523.3,130.6z
		 M501.3,129.2c0.1,5.6,1.2,10.2,3.5,13.7c-0.8-4.2-0.9-9.1-1-14C503.2,129,502.1,129,501.3,129.2z M505.9,158.6
		c0.1,1-0.1,2.3,0.1,3.2c4.7-2.8,9.5-6,11.3-11.6C514.2,153.7,511,157.1,505.9,158.6z"/>
	<path class="st7" d="M505.9,158.6v3.2c0,0,9.7-4.9,11.4-11.6C517.3,150.2,512.1,157.1,505.9,158.6z"/>
</g>
</svg>
